<svg width="64" height="57" viewBox="0 0 64 57" fill="none" xmlns="http://www.w3.org/2000/svg">
<g clip-path="url(#clip0)">
<path d="M6 0H10.6412L21.2962 24.1248L31.9513 0H36.5925L21.2962 34L6 0Z" fill="#FFF9DB"/>
<path d="M40.1224 0L31.363 19.883L33.5855 24.8538L44.8289 0H40.1224ZM14.2365 0L25.4145 24.8538L27.637 19.883L18.8776 0H14.2365Z" fill="#FFF9DB"/>
<path d="M22.4075 0H27.0487L37.7038 24.1248L48.3589 0H53L37.7691 34L22.4075 0Z" fill="#FFF9DB"/>
</g>
<path d="M4.518 52.144L7.884 44.782L11.25 52.144L15.678 39.22H12.744L10.764 45.214L7.884 39.076L5.004 45.214L3.024 39.22H0.09L4.518 52.144ZM16.9736 52H24.8936V49.156H19.8536V46.996H23.8136V44.224H19.8536V42.064H24.8936V39.22H16.9736V52ZM33.6933 52H37.1313L32.9733 46.582C34.4493 46.006 35.4393 44.62 35.4393 43.018C35.4393 40.93 33.7293 39.22 31.6413 39.22H26.8173V52H29.6973V46.816H29.7333L33.6933 52ZM29.6973 44.386V41.848H31.3173C32.0913 41.848 32.6493 42.424 32.6493 43.126C32.6493 43.828 32.0913 44.386 31.3173 44.386H29.6973ZM37.1384 52H40.1624L41.0804 50.02H45.7964L46.7144 52H49.7384L43.4384 39.076L37.1384 52ZM42.2324 47.68L43.4384 45.016L44.6444 47.68H42.2324ZM51.9965 52.144L55.3625 44.782L58.7285 52.144L63.1565 39.22H60.2225L58.2425 45.214L55.3625 39.076L52.4825 45.214L50.5025 39.22H47.5685L51.9965 52.144Z" fill="#FFF9DB"/>
<defs>
<clipPath id="clip0">
<rect width="47" height="34" fill="white" transform="translate(6)"/>
</clipPath>
</defs>
</svg>
