<?xml version="1.0" encoding="utf-8"?>
<!-- Generator: Adobe Illustrator 22.1.0, SVG Export Plug-In . SVG Version: 6.00 Build 0)  -->
<svg version="1.1" id="Calque_1" xmlns="http://www.w3.org/2000/svg" xmlns:xlink="http://www.w3.org/1999/xlink" x="0px" y="0px"
	 viewBox="0 0 366 74" style="enable-background:new 0 0 366 74;" xml:space="preserve">
<style type="text/css">
	.st0{fill:url(#SVGID_1_);}
	.st1{clip-path:url(#SVGID_4_);}
	.st2{fill:url(#SVGID_5_);}
	.st3{fill:url(#SVGID_6_);}
	.st4{clip-path:url(#SVGID_8_);}
	.st5{fill:url(#SVGID_9_);}
	.st6{fill:url(#SVGID_10_);}
	.st7{clip-path:url(#SVGID_12_);}
	.st8{fill:url(#SVGID_13_);}
	.st9{clip-path:url(#SVGID_16_);}
	.st10{fill:url(#SVGID_17_);}
	.st11{fill:url(#SVGID_18_);}
	.st12{clip-path:url(#SVGID_19_);}
	.st13{fill:url(#SVGID_20_);}
</style>
<g>
	<linearGradient id="SVGID_1_" gradientUnits="userSpaceOnUse" x1="44.5937" y1="2.3942" x2="-0.4063" y2="54.3942">
		<stop  offset="1.215278e-03" style="stop-color:#FBB03B"/>
		<stop  offset="0.8471" style="stop-color:#D88B22"/>
		<stop  offset="1" style="stop-color:#D1841D"/>
	</linearGradient>
	<polygon class="st0" points="-0.1,2 16.4,2 29.7,42 45.4,2.1 48.2,2.1 54.3,17.2 27.9,73.7 	"/>
	<g>
		<defs>
			<polygon id="SVGID_2_" points="90,2.1 75.4,2.1 63.7,40.4 48.2,2.1 34.7,2.1 40.1,15.5 36.1,25.8 42.5,42.4 47,32.8 63.4,73.5 
							"/>
		</defs>
		<clipPath id="SVGID_4_">
			<use xlink:href="#SVGID_2_"  style="overflow:visible;"/>
		</clipPath>
		<g class="st1">
			
				<image style="overflow:visible;opacity:0.5;" width="68" height="90" xlink:href="303321C40D1ED5FD.png"  transform="matrix(1 0 0 1 36 2)">
			</image>
			<g>
				<linearGradient id="SVGID_5_" gradientUnits="userSpaceOnUse" x1="92.8456" y1="37.9619" x2="43.6079" y2="37.4517">
					<stop  offset="1.571950e-02" style="stop-color:#FBB03B"/>
					<stop  offset="1" style="stop-color:#D1841D"/>
				</linearGradient>
				<polygon class="st2" points="40.1,15.5 45.4,2.1 48.2,2.1 63.7,40.4 75.4,2.1 90,2.1 63.4,73.5 				"/>
			</g>
		</g>
	</g>
</g>
<g>
	<linearGradient id="SVGID_6_" gradientUnits="userSpaceOnUse" x1="320.7332" y1="2.7943" x2="275.7332" y2="54.7943">
		<stop  offset="0" style="stop-color:#FBB03B"/>
		<stop  offset="0.8469" style="stop-color:#D88B22"/>
		<stop  offset="1" style="stop-color:#D1841D"/>
	</linearGradient>
	<polygon class="st3" points="276,2.4 292.5,2.4 305.8,42.4 321.5,2.5 324.4,2.5 330.4,17.6 304,74.1 	"/>
	<g>
		<defs>
			<polygon id="SVGID_7_" points="366.1,2.5 351.5,2.5 339.8,40.8 324.4,2.5 310.9,2.5 316.3,15.9 312.2,26.2 318.7,42.8 
				323.2,33.2 339.5,73.9 			"/>
		</defs>
		<clipPath id="SVGID_8_">
			<use xlink:href="#SVGID_7_"  style="overflow:visible;"/>
		</clipPath>
		<g class="st4">
			
				<image style="overflow:visible;opacity:0.5;" width="69" height="90" xlink:href="303321C40D1ED5FE.png"  transform="matrix(1 0 0 1 312 2)">
			</image>
			<g>
				<linearGradient id="SVGID_9_" gradientUnits="userSpaceOnUse" x1="368.9851" y1="38.3619" x2="319.7474" y2="37.8517">
					<stop  offset="0.163" style="stop-color:#FBB03B"/>
					<stop  offset="1" style="stop-color:#D1841D"/>
				</linearGradient>
				<polygon class="st5" points="316.3,15.9 321.5,2.5 324.4,2.5 339.8,40.8 351.5,2.5 366.1,2.5 339.5,73.9 				"/>
			</g>
		</g>
	</g>
</g>
<g>
	<linearGradient id="SVGID_10_" gradientUnits="userSpaceOnUse" x1="187.8606" y1="-1.3977" x2="189.3463" y2="81.0569">
		<stop  offset="0.4707" style="stop-color:#FBB03B"/>
		<stop  offset="1" style="stop-color:#D1841D"/>
	</linearGradient>
	<path class="st6" d="M199.8,71.1l-14.5-21.9h-9.1v21.9h-13.6V2.3h20.9c8.5,0,15.2,2.1,19.9,6.2c4.7,4.2,7.1,9.8,7.1,17
		c0,4.2-0.9,8.2-2.7,11.9c-1.8,3.7-4.5,6.6-8.2,8.8l16,25H199.8z M176.3,36.1h9.6c3.7,0,6.4-1.1,8-3.2c1.7-2.2,2.5-4.5,2.5-7
		c0-2.5-0.7-4.9-2.2-7.2c-1.4-2.3-4.2-3.4-8.3-3.4h-9.7V36.1z"/>
	<g>
		<defs>
			<path id="SVGID_11_" d="M199.8,71.1l-14.5-21.9h-9.1v21.9h-13.6V2.3h20.9c8.5,0,15.2,2.1,19.9,6.2c4.7,4.2,7.1,9.8,7.1,17
				c0,4.2-0.9,8.2-2.7,11.9c-1.8,3.7-4.5,6.6-8.2,8.8l16,25H199.8z M176.3,36.1h9.6c3.7,0,6.4-1.1,8-3.2c1.7-2.2,2.5-4.5,2.5-7
				c0-2.5-0.7-4.9-2.2-7.2c-1.4-2.3-4.2-3.4-8.3-3.4h-9.7V36.1z"/>
		</defs>
		<clipPath id="SVGID_12_">
			<use xlink:href="#SVGID_11_"  style="overflow:visible;"/>
		</clipPath>
		<g class="st7">
			
				<image style="overflow:visible;opacity:0.4;" width="73" height="56" xlink:href="303321C40D1ED5FC.png"  transform="matrix(1 0 0 1 150 -10)">
			</image>
			<g>
				<linearGradient id="SVGID_13_" gradientUnits="userSpaceOnUse" x1="186.2743" y1="-2.3683" x2="186.7326" y2="43.0045">
					<stop  offset="0" style="stop-color:#FBB03B"/>
					<stop  offset="1" style="stop-color:#D1841D"/>
				</linearGradient>
				<path class="st8" d="M210.5,25.5c0,2-0.7,5.8-1.1,7.7l-15.4-0.3c0.1-0.6,2.5-6.4,2.5-7c0-2.5-0.7-4.9-2.1-7.2
					c-1.4-2.3-4.2-3.4-8.3-3.4h-9.7l0,17.8h-13.6V2.3h20.9c8.5,0,15.2,2.1,19.9,6.2C208.1,12.6,210.5,18.3,210.5,25.5z"/>
			</g>
		</g>
	</g>
</g>
<g>
	<defs>
		<path id="SVGID_14_" d="M267.4,57.7h-22.8l-5.6,13.5h-13.4l31.1-71.6h0.7l31.1,71.6h-15.7L267.4,57.7z M262.9,46.2l-6.6-16.8
			l-6.9,16.8H262.9z"/>
	</defs>
	<linearGradient id="SVGID_15_" gradientUnits="userSpaceOnUse" x1="251.4508" y1="79.5214" x2="283.4619" y2="12.361">
		<stop  offset="1.215278e-03" style="stop-color:#FBB03B"/>
		<stop  offset="1" style="stop-color:#D1841D"/>
	</linearGradient>
	<use xlink:href="#SVGID_14_"  style="overflow:visible;fill:url(#SVGID_15_);"/>
	<clipPath id="SVGID_16_">
		<use xlink:href="#SVGID_14_"  style="overflow:visible;"/>
	</clipPath>
	<g class="st9">
		
			<image style="overflow:visible;opacity:0.4;" width="56" height="59" xlink:href="303321C40D1ED5F4.png"  transform="matrix(1 0 0 1 229 -13)">
		</image>
		<g>
			<linearGradient id="SVGID_17_" gradientUnits="userSpaceOnUse" x1="241.8985" y1="16.4736" x2="272.0385" y2="16.4736">
				<stop  offset="1.215278e-03" style="stop-color:#FBB03B"/>
				<stop  offset="1" style="stop-color:#D1841D"/>
			</linearGradient>
			<polygon class="st10" points="272,33.4 257.8,33.4 256.2,29.5 254.6,33.4 241.9,33.4 256.6,-0.5 257.3,-0.5 			"/>
		</g>
	</g>
</g>
<g>
	<linearGradient id="SVGID_18_" gradientUnits="userSpaceOnUse" x1="125.6761" y1="72.9191" x2="125.2595" y2="15.0076">
		<stop  offset="0.1241" style="stop-color:#FBB03B"/>
		<stop  offset="1" style="stop-color:#D1841D"/>
	</linearGradient>
	<polygon class="st11" points="144.6,42.9 144.6,29.8 115,29.8 115,14.9 101.5,14.9 101.5,29.8 101.5,70.9 149.8,70.9 149.8,57.8 
		115,57.8 115,42.9 	"/>
	<g>
		<defs>
			<polygon id="SVGID_3_" points="148.5,15.1 148.5,2 101.5,2 101.5,29.8 101.5,42.9 101.5,67.6 115,67.6 115,42.9 131.4,42.9 
				131.4,29.8 115,29.8 115,15.1 			"/>
		</defs>
		<clipPath id="SVGID_19_">
			<use xlink:href="#SVGID_3_"  style="overflow:visible;"/>
		</clipPath>
		<g class="st12">
			
				<image style="overflow:visible;opacity:0.4;" width="72" height="56" xlink:href="303321C40D1ED5F5.png"  transform="matrix(1 0 0 1 89 -10)">
			</image>
			<g>
				<linearGradient id="SVGID_20_" gradientUnits="userSpaceOnUse" x1="125.0879" y1="33.5418" x2="124.7546" y2="-7.7915">
					<stop  offset="0.1253" style="stop-color:#FBB03B"/>
					<stop  offset="1" style="stop-color:#D1841D"/>
				</linearGradient>
				<polygon class="st13" points="148.5,15.1 148.5,2 101.5,2 101.5,33.2 115,33.2 115,15.1 				"/>
			</g>
		</g>
	</g>
</g>
</svg>
